<mxfile host="Electron" agent="Mozilla/5.0 (Windows NT 10.0; Win64; x64) AppleWebKit/537.36 (KHTML, like Gecko) draw.io/25.0.2 Chrome/128.0.6613.186 Electron/32.2.5 Safari/537.36" version="25.0.2">
  <diagram name="Trang-1" id="_Nwho6YEJMuwtQIJM811">
    <mxGraphModel dx="1104" dy="732" grid="1" gridSize="10" guides="1" tooltips="1" connect="1" arrows="1" fold="1" page="1" pageScale="1" pageWidth="827" pageHeight="1169" math="0" shadow="0">
      <root>
        <mxCell id="0" />
        <mxCell id="1" parent="0" />
        <mxCell id="qubWMoMRc4tjkrTYKmNu-3" value="" style="edgeStyle=orthogonalEdgeStyle;rounded=0;orthogonalLoop=1;jettySize=auto;html=1;" edge="1" parent="1" source="qubWMoMRc4tjkrTYKmNu-1" target="qubWMoMRc4tjkrTYKmNu-2">
          <mxGeometry relative="1" as="geometry" />
        </mxCell>
        <mxCell id="qubWMoMRc4tjkrTYKmNu-1" value="start" style="ellipse;whiteSpace=wrap;html=1;fillColor=none;" vertex="1" parent="1">
          <mxGeometry x="40" y="10" width="120" height="80" as="geometry" />
        </mxCell>
        <mxCell id="qubWMoMRc4tjkrTYKmNu-5" value="" style="edgeStyle=orthogonalEdgeStyle;rounded=0;orthogonalLoop=1;jettySize=auto;html=1;" edge="1" parent="1" source="qubWMoMRc4tjkrTYKmNu-2" target="qubWMoMRc4tjkrTYKmNu-4">
          <mxGeometry relative="1" as="geometry" />
        </mxCell>
        <mxCell id="qubWMoMRc4tjkrTYKmNu-2" value="diem" style="shape=parallelogram;perimeter=parallelogramPerimeter;whiteSpace=wrap;html=1;fixedSize=1;fillColor=none;" vertex="1" parent="1">
          <mxGeometry x="40" y="150" width="120" height="60" as="geometry" />
        </mxCell>
        <mxCell id="qubWMoMRc4tjkrTYKmNu-9" value="" style="edgeStyle=orthogonalEdgeStyle;rounded=0;orthogonalLoop=1;jettySize=auto;html=1;" edge="1" parent="1" source="qubWMoMRc4tjkrTYKmNu-4" target="qubWMoMRc4tjkrTYKmNu-8">
          <mxGeometry relative="1" as="geometry" />
        </mxCell>
        <mxCell id="qubWMoMRc4tjkrTYKmNu-17" value="" style="edgeStyle=orthogonalEdgeStyle;rounded=0;orthogonalLoop=1;jettySize=auto;html=1;" edge="1" parent="1" source="qubWMoMRc4tjkrTYKmNu-4" target="qubWMoMRc4tjkrTYKmNu-16">
          <mxGeometry relative="1" as="geometry" />
        </mxCell>
        <mxCell id="qubWMoMRc4tjkrTYKmNu-4" value="if 4&amp;lt;=diem&amp;lt;=6" style="rhombus;whiteSpace=wrap;html=1;fillColor=none;" vertex="1" parent="1">
          <mxGeometry x="45" y="270" width="110" height="100" as="geometry" />
        </mxCell>
        <mxCell id="qubWMoMRc4tjkrTYKmNu-13" value="" style="edgeStyle=orthogonalEdgeStyle;rounded=0;orthogonalLoop=1;jettySize=auto;html=1;entryX=0;entryY=0.5;entryDx=0;entryDy=0;" edge="1" parent="1" source="qubWMoMRc4tjkrTYKmNu-8" target="qubWMoMRc4tjkrTYKmNu-12">
          <mxGeometry relative="1" as="geometry">
            <mxPoint x="420" y="490" as="targetPoint" />
            <Array as="points">
              <mxPoint x="420" y="320" />
              <mxPoint x="420" y="575" />
            </Array>
          </mxGeometry>
        </mxCell>
        <mxCell id="qubWMoMRc4tjkrTYKmNu-8" value="trung binh" style="shape=parallelogram;perimeter=parallelogramPerimeter;whiteSpace=wrap;html=1;fixedSize=1;fillColor=none;" vertex="1" parent="1">
          <mxGeometry x="220" y="290" width="120" height="60" as="geometry" />
        </mxCell>
        <mxCell id="qubWMoMRc4tjkrTYKmNu-12" value="end" style="ellipse;whiteSpace=wrap;html=1;fillColor=none;" vertex="1" parent="1">
          <mxGeometry x="520" y="540" width="120" height="70" as="geometry" />
        </mxCell>
        <mxCell id="qubWMoMRc4tjkrTYKmNu-19" value="" style="edgeStyle=orthogonalEdgeStyle;rounded=0;orthogonalLoop=1;jettySize=auto;html=1;" edge="1" parent="1" source="qubWMoMRc4tjkrTYKmNu-16" target="qubWMoMRc4tjkrTYKmNu-18">
          <mxGeometry relative="1" as="geometry" />
        </mxCell>
        <mxCell id="qubWMoMRc4tjkrTYKmNu-24" value="" style="edgeStyle=orthogonalEdgeStyle;rounded=0;orthogonalLoop=1;jettySize=auto;html=1;" edge="1" parent="1" source="qubWMoMRc4tjkrTYKmNu-16" target="qubWMoMRc4tjkrTYKmNu-23">
          <mxGeometry relative="1" as="geometry" />
        </mxCell>
        <mxCell id="qubWMoMRc4tjkrTYKmNu-16" value="if 6&amp;lt;diem&amp;lt;=8" style="rhombus;whiteSpace=wrap;html=1;fillColor=none;" vertex="1" parent="1">
          <mxGeometry x="45" y="440" width="110" height="100" as="geometry" />
        </mxCell>
        <mxCell id="qubWMoMRc4tjkrTYKmNu-21" value="" style="edgeStyle=orthogonalEdgeStyle;rounded=0;orthogonalLoop=1;jettySize=auto;html=1;entryX=0.5;entryY=0;entryDx=0;entryDy=0;" edge="1" parent="1" source="qubWMoMRc4tjkrTYKmNu-18" target="qubWMoMRc4tjkrTYKmNu-22">
          <mxGeometry relative="1" as="geometry">
            <mxPoint x="100" y="790" as="targetPoint" />
          </mxGeometry>
        </mxCell>
        <mxCell id="qubWMoMRc4tjkrTYKmNu-18" value="if 8&amp;lt;diem&amp;lt;=9" style="rhombus;whiteSpace=wrap;html=1;fillColor=none;" vertex="1" parent="1">
          <mxGeometry x="45" y="600" width="110" height="100" as="geometry" />
        </mxCell>
        <mxCell id="qubWMoMRc4tjkrTYKmNu-22" value="if 9&amp;lt;diem&amp;lt;=10" style="rhombus;whiteSpace=wrap;html=1;fillColor=none;" vertex="1" parent="1">
          <mxGeometry x="45" y="760" width="110" height="100" as="geometry" />
        </mxCell>
        <mxCell id="qubWMoMRc4tjkrTYKmNu-23" value="kha" style="shape=parallelogram;perimeter=parallelogramPerimeter;whiteSpace=wrap;html=1;fixedSize=1;fillColor=none;" vertex="1" parent="1">
          <mxGeometry x="210" y="460" width="120" height="60" as="geometry" />
        </mxCell>
        <mxCell id="qubWMoMRc4tjkrTYKmNu-25" value="" style="edgeStyle=orthogonalEdgeStyle;rounded=0;orthogonalLoop=1;jettySize=auto;html=1;" edge="1" parent="1" target="qubWMoMRc4tjkrTYKmNu-26">
          <mxGeometry relative="1" as="geometry">
            <mxPoint x="155" y="650" as="sourcePoint" />
          </mxGeometry>
        </mxCell>
        <mxCell id="qubWMoMRc4tjkrTYKmNu-26" value="gioi" style="shape=parallelogram;perimeter=parallelogramPerimeter;whiteSpace=wrap;html=1;fixedSize=1;fillColor=none;" vertex="1" parent="1">
          <mxGeometry x="210" y="620" width="120" height="60" as="geometry" />
        </mxCell>
        <mxCell id="qubWMoMRc4tjkrTYKmNu-27" value="" style="edgeStyle=orthogonalEdgeStyle;rounded=0;orthogonalLoop=1;jettySize=auto;html=1;" edge="1" parent="1" target="qubWMoMRc4tjkrTYKmNu-28">
          <mxGeometry relative="1" as="geometry">
            <mxPoint x="155" y="810" as="sourcePoint" />
          </mxGeometry>
        </mxCell>
        <mxCell id="qubWMoMRc4tjkrTYKmNu-35" style="edgeStyle=orthogonalEdgeStyle;rounded=0;orthogonalLoop=1;jettySize=auto;html=1;exitX=1;exitY=0.5;exitDx=0;exitDy=0;entryX=0;entryY=0.5;entryDx=0;entryDy=0;" edge="1" parent="1" source="qubWMoMRc4tjkrTYKmNu-28" target="qubWMoMRc4tjkrTYKmNu-12">
          <mxGeometry relative="1" as="geometry">
            <Array as="points">
              <mxPoint x="420" y="810" />
              <mxPoint x="420" y="575" />
            </Array>
          </mxGeometry>
        </mxCell>
        <mxCell id="qubWMoMRc4tjkrTYKmNu-28" value="xuat sac" style="shape=parallelogram;perimeter=parallelogramPerimeter;whiteSpace=wrap;html=1;fixedSize=1;fillColor=none;" vertex="1" parent="1">
          <mxGeometry x="210" y="780" width="120" height="60" as="geometry" />
        </mxCell>
        <mxCell id="qubWMoMRc4tjkrTYKmNu-29" value="" style="edgeStyle=orthogonalEdgeStyle;rounded=0;orthogonalLoop=1;jettySize=auto;html=1;entryX=0;entryY=0.5;entryDx=0;entryDy=0;" edge="1" parent="1" target="qubWMoMRc4tjkrTYKmNu-12">
          <mxGeometry relative="1" as="geometry">
            <mxPoint x="320" y="490" as="sourcePoint" />
            <mxPoint x="570" y="710" as="targetPoint" />
          </mxGeometry>
        </mxCell>
        <mxCell id="qubWMoMRc4tjkrTYKmNu-30" value="" style="edgeStyle=orthogonalEdgeStyle;rounded=0;orthogonalLoop=1;jettySize=auto;html=1;entryX=0;entryY=0.5;entryDx=0;entryDy=0;" edge="1" parent="1" target="qubWMoMRc4tjkrTYKmNu-12">
          <mxGeometry relative="1" as="geometry">
            <mxPoint x="320" y="650" as="sourcePoint" />
            <mxPoint x="570" y="870" as="targetPoint" />
          </mxGeometry>
        </mxCell>
      </root>
    </mxGraphModel>
  </diagram>
</mxfile>
